<svg width="20" height="20" viewBox="0 0 20 20" fill="none" xmlns="http://www.w3.org/2000/svg">
<path fill-rule="evenodd" clip-rule="evenodd" d="M10.5972 2.59406C11.5049 1.72156 12.7199 1.23928 13.9805 1.25018C15.241 1.26108 16.4475 1.76432 17.3398 2.65241C18.2322 3.54059 18.7389 4.74271 18.7499 6C18.7608 7.2573 18.2752 8.46803 17.3984 9.37155L17.3908 9.37935L14.879 11.8792C14.3911 12.365 13.8042 12.7405 13.158 12.9804C12.5119 13.2203 11.8216 13.319 11.1338 13.27C10.4461 13.221 9.7769 13.0253 9.17158 12.6962C8.56625 12.367 8.03889 11.912 7.62541 11.3618C7.41803 11.0859 7.47361 10.694 7.74954 10.4867C8.02548 10.2793 8.41729 10.3349 8.62467 10.6108C8.93032 11.0175 9.32045 11.3542 9.76873 11.598C10.217 11.8418 10.7129 11.9868 11.2227 12.0232C11.7325 12.0595 12.2442 11.9863 12.7229 11.8085C13.2017 11.6308 13.6362 11.3527 13.9971 10.9934L16.505 8.49731C17.1511 7.82955 17.508 6.93686 17.4999 6.01092C17.4918 5.08324 17.118 4.19525 16.458 3.53837C15.7979 2.88139 14.9044 2.50822 13.9696 2.50013C13.0364 2.49206 12.1378 2.84861 11.4666 3.4922L10.0299 4.9139C9.78451 5.15669 9.38878 5.1546 9.146 4.90924C8.90321 4.66388 8.90529 4.26815 9.15066 4.02537L10.5972 2.59406Z" fill="white"/>
<path fill-rule="evenodd" clip-rule="evenodd" d="M6.84203 6.55185C7.48817 6.31196 8.17848 6.21321 8.8662 6.26223C9.55392 6.31125 10.2231 6.50691 10.8285 6.83607C11.4338 7.16523 11.9611 7.62025 12.3746 8.17043C12.582 8.44637 12.5264 8.83817 12.2505 9.04555C11.9746 9.25293 11.5827 9.19735 11.3754 8.92142C11.0697 8.51472 10.6796 8.17798 10.2313 7.93421C9.78302 7.69044 9.28714 7.5454 8.77733 7.50906C8.26751 7.47272 7.75585 7.54594 7.2771 7.72369C6.79836 7.90144 6.36385 8.1795 6.00295 8.53883L3.49506 11.0349C2.84897 11.7027 2.49205 12.5954 2.50013 13.5213C2.50823 14.449 2.88207 15.337 3.54205 15.9939C4.20214 16.6508 5.09568 17.024 6.03039 17.0321C6.96335 17.0402 7.86169 16.6838 8.53277 16.0406L9.9605 14.6196C10.2052 14.3761 10.6009 14.377 10.8444 14.6217C11.0879 14.8663 11.087 15.2621 10.8423 15.5056L9.40287 16.9382C8.49524 17.8107 7.28016 18.2929 6.01957 18.282C4.75899 18.2711 3.55254 17.7679 2.66026 16.8798C1.76787 15.9916 1.26116 14.7895 1.25018 13.5322C1.2392 12.2749 1.72486 11.0642 2.60163 10.1607L2.60919 10.1529L5.121 7.65302C5.12097 7.65305 5.12102 7.65299 5.121 7.65302C5.60888 7.16727 6.19592 6.79174 6.84203 6.55185Z" fill="white"/>
</svg>
